<?xml version="1.0" encoding="UTF-8"?><svg xmlns="http://www.w3.org/2000/svg" viewBox="0 0 203.77 43.39"><defs><style>.cls-1{fill:#0282c9;}.cls-1,.cls-2,.cls-3,.cls-4{mix-blend-mode:multiply;}.cls-1,.cls-2,.cls-3,.cls-4,.cls-5,.cls-6,.cls-7,.cls-8,.cls-9{stroke-width:0px;}.cls-2{fill:#012c78;}.cls-3{fill:#005880;}.cls-4{fill:#01569a;}.cls-10{isolation:isolate;}.cls-5{fill:#06429e;}.cls-6{fill:#929497;}.cls-7{fill:#fff;}.cls-8{fill:#03aba3;}.cls-9{fill:#01a9b2;}</style></defs><g class="cls-10"><g id="Layer_2"><g id="Layer_1-2"><polygon class="cls-4" points="44.52 0 33.89 20.46 42.14 36.33 63.41 36.33 44.52 0"/><polygon class="cls-8" points="11.35 14.5 0 36.33 12.89 36.33 17.79 26.9 11.35 14.5"/><polygon class="cls-1" points="27.51 8.19 17.79 26.9 22.7 36.33 25.64 36.33 33.89 20.46 27.51 8.19"/><polygon class="cls-2" points="25.64 36.33 42.14 36.33 33.89 20.46 25.64 36.33"/><polygon class="cls-3" points="12.89 36.33 22.7 36.33 17.79 26.9 12.89 36.33"/><polygon class="cls-7" points="26.3 19.33 26.75 20 27.16 18.12 26.8 18.33 27.16 15.98 26.8 16.34 27.51 12.57 22.49 22.21 24.96 19.33 24.75 21.25 26.3 19.33"/><polygon class="cls-7" points="10.42 24.03 10.77 24.54 11.08 23.11 10.81 23.28 11.08 21.49 10.81 21.76 11.35 18.9 7.47 26.31 9.41 24.03 9.24 25.49 10.42 24.03"/><path class="cls-7" d="m50.64,16.12l-6.11-11.69-6.11,11.69,3.17-3.45-.27,2.39,1.93-2.39.56.83.73-1.02.73,1.02.56-.83,1.93,2.39-.27-2.39,3.17,3.45Z"/><path class="cls-7" d="m53.79,27.16c0-2.68-2.18-4.87-4.87-4.87-1.35,0-2.58.56-3.46,1.45-.88-.9-2.11-1.45-3.46-1.45s-2.58.56-3.46,1.45c-.88-.9-2.11-1.45-3.46-1.45,0,0,0,0,0,0,0,0,0,0,0,0-.77,0-1.4.63-1.4,1.4,0,0,0,0,0,0,0,0,0,0,0,0,0,.77.63,1.4,1.4,1.4,1.13,0,2.05.92,2.06,2.05,0,0,0,0,0,.01v4.87s0,0,0,.01c0,.77.63,1.4,1.4,1.4,0,0,0,0,.01,0,.04,0,.08,0,.11,0,.01,0,.02,0,.03,0,.04,0,.08-.01.12-.02,0,0,.01,0,.02,0,.04,0,.08-.02.12-.03,0,0,0,0,.01,0,.04-.01.08-.03.12-.04,0,0,0,0,0,0,.04-.02.08-.04.12-.06.04-.02.08-.04.11-.07,0,0,0,0,0,0,.37-.25.62-.68.62-1.16v-4.88s0,0,0-.01c0-1.13.93-2.05,2.06-2.05s2.06.92,2.06,2.06h0v4.88s0,0,0,0,0,0,0,0c0,.77.63,1.4,1.4,1.4.15,0,.29-.02.42-.06.57-.18.99-.71.99-1.34v-4.88s0,0,0,0c0-1.14.92-2.06,2.06-2.06s2.06.92,2.06,2.06v4.88c0,.63.42,1.16.99,1.34.13.04.27.06.42.06.77,0,1.4-.63,1.4-1.4,0,0,0,0,0,0,0,0,0,0,0,0v-4.88Z"/><path class="cls-5" d="m66.33,18.44c0-6.32,4.57-11.7,12.28-11.7,2.82,0,4.86.71,6.61,1.85.62.42.75.94.39,1.62l-.29.52c-.36.65-.91.78-1.62.39-1.43-.78-3.31-1.3-5.09-1.3-5.57,0-8.78,3.95-8.78,8.62s3.21,8.62,8.78,8.62c1.78,0,3.66-.52,5.09-1.3.71-.39,1.26-.26,1.62.39l.29.52c.36.68.29,1.13-.19,1.49-1.78,1.2-3.86,1.98-6.81,1.98-7.71,0-12.28-5.38-12.28-11.7Z"/><path class="cls-5" d="m87.62,21.65c0-4.67,3.82-8.46,8.56-8.46s8.62,3.82,8.62,8.46-3.86,8.49-8.62,8.49-8.56-3.76-8.56-8.49Zm13.84.03c0-3.08-2.33-5.57-5.28-5.57s-5.25,2.5-5.25,5.57,2.37,5.54,5.25,5.54,5.28-2.46,5.28-5.54Z"/><path class="cls-5" d="m106.94,21.65c0-4.67,3.21-8.46,8.04-8.46,2.17,0,4.28.75,5.8,2.92v-1.39c0-.75.45-1.17,1.2-1.17h.97c.75,0,1.17.42,1.17,1.17v13.9c0,.75-.42,1.17-1.17,1.17h-.97c-.75,0-1.2-.42-1.2-1.17v-1.39c-1.52,2.17-3.63,2.92-5.8,2.92-4.83,0-8.04-3.82-8.04-8.49Zm13.9,0c-.03-3.21-2.2-5.57-5.41-5.57s-5.15,2.56-5.15,5.57,1.88,5.57,5.15,5.57,5.38-2.37,5.41-5.57Z"/><path class="cls-5" d="m127.48,21.84c0-4.76,3.27-8.65,9.14-8.65,1.3,0,3.05.26,4.89,1.33.68.39.78,1.04.32,1.65l-.26.32c-.45.62-.94.65-1.65.32-1.39-.68-2.79-.71-3.14-.71-3.44,0-5.96,2.27-5.96,5.54s2.53,5.57,5.96,5.57c.36,0,1.75-.03,3.14-.71.71-.36,1.23-.29,1.65.32l.23.32c.45.62.23,1.39-.81,1.91-1.62.88-3.21,1.07-4.38,1.07-5.74,0-9.14-3.66-9.14-8.3Z"/><path class="cls-5" d="m145.47,28.62V7.52c0-.75.45-1.17,1.2-1.17h.97c.75,0,1.17.42,1.17,1.17v9.2c.71-2.27,2.79-3.53,5.41-3.53,3.6,0,6.22,2.33,6.22,7.42v8c0,.75-.45,1.17-1.2,1.17h-.97c-.75,0-1.17-.42-1.17-1.17v-7.97c0-3.34-1.52-4.54-3.24-4.54s-5.06,1.13-5.06,6.06v6.45c0,.75-.42,1.17-1.17,1.17h-.97c-.75,0-1.2-.42-1.2-1.17Z"/><path class="cls-9" d="m172.92,25.77l-4.31-6.09v8.94c0,.75-.42,1.17-1.17,1.17h-1.1c-.75,0-1.17-.42-1.17-1.17V8.26c0-.75.42-1.17,1.17-1.17h1.1c.75,0,1.17.42,1.17,1.17v9.85l7.32-10.27c.39-.55.84-.75,1.46-.75h1.78c.75,0,.81.62.36,1.26l-7.62,10.44,4.15,5.67c1,1.46,2.17,2.72,3.53,2.72.32,0,.81,0,1.36-.26.71-.26,1.2-.16,1.52.49l.19.39c.32.62.23,1.26-.52,1.62-.97.52-2.2.71-2.95.71-3.31,0-5.19-2.66-6.29-4.38Z"/><path class="cls-9" d="m184.39,8.39c0-1.26.94-2.27,2.24-2.27s2.3,1,2.3,2.27-1,2.2-2.3,2.2-2.24-.97-2.24-2.2Zm.58,20.22v-13.9c0-.75.45-1.17,1.2-1.17h.97c.75,0,1.17.42,1.17,1.17v13.9c0,.75-.42,1.17-1.17,1.17h-.97c-.75,0-1.2-.42-1.2-1.17Z"/><path class="cls-9" d="m193.76,24.63v-8.49h-1.98c-.42,0-.65-.26-.65-.68v-1.26c0-.42.23-.65.65-.65h2.04l.58-3.73c.1-.62.45-.94,1.04-.94h.68c.62,0,.97.39.97,1v3.66h4.44c.42,0,.65.23.65.65v1.26c0,.42-.23.68-.65.68h-4.44v8.69c0,1.75.84,2.43,1.88,2.43s1.91-.58,1.91-1.75c0-.13,0-.36-.06-.62-.06-.45.13-.75.58-.75h1.49c.39,0,.68.16.75.58.13.55.13,1.17.13,1.2,0,2.43-1.75,4.21-4.86,4.21-2.59,0-5.15-1.33-5.15-5.51Z"/><path class="cls-5" d="m142.23,35.57c-.74,0-1.46.34-1.84,1.16-.26-.84-.92-1.16-1.76-1.16-.59,0-1.23.25-1.54.87,0,0,0-.33,0-.33,0-.24-.2-.44-.44-.44s-.44.2-.44.44v4.45c0,.24.2.44.44.44s.44-.2.44-.44h0v-2.63c0-.85.55-1.53,1.41-1.53.93,0,1.42.65,1.42,1.53v2.64h0c0,.24.19.43.43.43s.43-.19.43-.43v-2.64c0-.85.57-1.53,1.43-1.53.94,0,1.37.63,1.37,1.5v2.67h0c0,.24.19.43.43.43s.43-.19.43-.43v-2.67c0-1.42-.74-2.33-2.2-2.33Z"/><path class="cls-5" d="m157.46,35.57c-.74,0-1.46.34-1.84,1.16-.26-.84-.92-1.16-1.76-1.16-.59,0-1.23.25-1.54.87,0,0,0-.33,0-.33,0-.24-.2-.44-.44-.44s-.44.2-.44.44v4.45c0,.24.2.44.44.44s.44-.2.44-.44h0v-2.63c0-.85.55-1.53,1.41-1.53.93,0,1.42.65,1.42,1.53v2.64h0c0,.24.19.43.43.43s.43-.19.43-.43v-2.64c0-.85.57-1.53,1.43-1.53.94,0,1.37.63,1.37,1.5v2.67h0c0,.24.19.43.43.43s.43-.19.43-.43v-2.67c0-1.42-.74-2.33-2.2-2.33Z"/><path class="cls-5" d="m150.18,38.62c.22,0,.39-.18.39-.39,0-1.84-1.15-2.68-2.64-2.68-1.58,0-2.71,1.13-2.71,2.71,0,1.66,1.13,2.73,2.76,2.73.76,0,1.63-.28,2.15-.81.08-.08.11-.17.11-.28,0-.22-.17-.39-.39-.39-.11,0-.21.05-.28.12-.37.36-1.03.56-1.57.56-1.01,0-1.8-.6-1.9-1.57h4.08Zm-4.08-.73c.15-1.01.94-1.56,1.85-1.56,1.02,0,1.72.55,1.77,1.56h-3.62Z"/><path class="cls-5" d="m171.79,38.62c.22,0,.39-.18.39-.39,0-1.84-1.15-2.68-2.64-2.68-1.58,0-2.71,1.13-2.71,2.71,0,1.66,1.13,2.73,2.76,2.73.76,0,1.63-.28,2.15-.81.08-.08.11-.17.11-.28,0-.22-.17-.39-.39-.39-.11,0-.21.05-.28.12-.37.36-1.03.56-1.57.56-1.01,0-1.8-.6-1.9-1.57h4.08Zm-4.08-.73c.15-1.01.94-1.56,1.85-1.56,1.02,0,1.72.55,1.77,1.56h-3.62Z"/><path class="cls-5" d="m192.86,38.62c.22,0,.39-.18.39-.39,0-1.84-1.15-2.68-2.64-2.68-1.58,0-2.71,1.13-2.71,2.71,0,1.66,1.13,2.73,2.76,2.73.76,0,1.63-.28,2.15-.81.08-.08.11-.17.11-.28,0-.22-.17-.39-.39-.39-.11,0-.21.05-.28.12-.37.36-1.03.56-1.57.56-1.01,0-1.8-.6-1.9-1.57h4.08Zm-4.08-.73c.15-1.01.94-1.56,1.85-1.56,1.02,0,1.72.55,1.77,1.56h-3.62Z"/><path class="cls-5" d="m163.58,35.57c-.73,0-1.59.33-1.95,1.04v-2.69c0-.24-.19-.43-.43-.43s-.43.19-.43.43v6.65c0,.24.19.43.43.43s.43-.19.43-.43v-.57c.39.69,1.17,1,1.94,1,1.51,0,2.67-.97,2.67-2.7s-1.17-2.71-2.66-2.71Zm-.06,4.6c-1.04,0-1.84-.76-1.84-1.9s.82-1.9,1.84-1.9,1.84.67,1.84,1.91-.83,1.89-1.84,1.89Z"/><path class="cls-5" d="m180.33,35.57c-.77,0-1.55.31-1.94,1v-.57c0-.24-.19-.43-.43-.43s-.43.2-.43.44v6.96c0,.24.19.43.43.43s.43-.2.43-.43,0-3.01,0-3.01c.36.71,1.22,1.04,1.95,1.04,1.49,0,2.66-.94,2.66-2.71s-1.17-2.7-2.67-2.7Zm-.05,4.61c-1.03,0-1.84-.77-1.84-1.9s.81-1.9,1.84-1.9,1.84.69,1.84,1.89-.83,1.91-1.84,1.91Z"/><path class="cls-5" d="m176.54,35.77c-.3-.14-.59-.21-.93-.21-.65,0-1.29.23-1.63.81v-.38c0-.23-.19-.42-.42-.42s-.42.19-.42.42v4.58c0,.24.19.43.43.43s.43-.2.43-.43,0-2.59,0-2.59c0-1,.55-1.55,1.55-1.57.24,0,.44.05.64.14.05.02.11.04.17.04.23,0,.43-.19.43-.43,0-.17-.11-.32-.24-.38Z"/><path class="cls-5" d="m187.38,35.77c-.3-.14-.59-.21-.93-.21-.65,0-1.29.23-1.63.81v-.38c0-.23-.19-.42-.42-.42s-.42.19-.42.42v4.58c0,.24.19.43.43.43s.43-.2.43-.43,0-2.59,0-2.59c0-1,.55-1.55,1.55-1.57.24,0,.44.05.64.14.05.02.11.04.17.04.23,0,.43-.19.43-.43,0-.17-.11-.32-.24-.38Z"/><path class="cls-5" d="m196.16,37.82c-.66-.07-1.3-.21-1.31-.74-.01-.56.57-.85,1.3-.84.32,0,.9.07,1.18.22l.23.11h0c.05.03.11.04.18.04.22,0,.4-.18.4-.4,0-.17-.11-.31-.26-.37-.08-.03-.16-.07-.25-.1-.47-.16-1-.25-1.49-.25-1.01-.01-2.15.46-2.14,1.58,0,1.11,1.1,1.36,2.11,1.49.82.08,1.46.25,1.45.84-.02.69-.85.81-1.37.81-.47,0-.96-.11-1.39-.33h0c-.06-.03-.12-.05-.19-.05-.23,0-.42.19-.42.42,0,.17.1.31.24.38h0s0,0,0,0c0,0,0,0,.01,0,.54.25,1.06.37,1.72.37,1.19,0,2.21-.5,2.24-1.58.02-1.31-1.28-1.49-2.25-1.62Z"/><path class="cls-5" d="m201.29,37.82c-.66-.07-1.3-.21-1.31-.74-.01-.56.57-.85,1.3-.84.32,0,.9.07,1.18.22l.23.11h0c.05.03.11.04.18.04.22,0,.4-.18.4-.4,0-.17-.11-.31-.26-.37-.08-.03-.16-.07-.25-.1-.47-.16-1-.25-1.49-.25-1.01-.01-2.15.46-2.14,1.58,0,1.11,1.1,1.36,2.11,1.49.82.08,1.46.25,1.45.84-.02.69-.85.81-1.37.81-.47,0-.96-.11-1.39-.33h0c-.06-.03-.12-.05-.19-.05-.23,0-.42.19-.42.42,0,.17.1.31.24.38h0s0,0,0,0c0,0,0,0,.01,0,.54.25,1.06.37,1.72.37,1.19,0,2.21-.5,2.24-1.58.02-1.31-1.28-1.49-2.25-1.62Z"/><path class="cls-6" d="m127.94,40.34v.46c0,.11-.06.17-.17.17h-.15c-.1,0-.17-.06-.17-.17v-4.33c0-.11.06-.17.17-.17h.15c.11,0,.17.06.17.17v1.91c.29-.48.75-.71,1.26-.71.98,0,1.62.76,1.62,1.69s-.63,1.68-1.62,1.68c-.51,0-.97-.21-1.26-.71Zm2.38-.98c0-.69-.43-1.25-1.17-1.25s-1.22.52-1.22,1.25c0,.72.51,1.24,1.22,1.24s1.17-.56,1.17-1.24Z"/><path class="cls-6" d="m131.98,42.23l.51-1.3-1.29-2.97c-.05-.12,0-.21.14-.21h.2c.1,0,.16.05.19.14l1.04,2.48.97-2.47c.03-.1.1-.14.2-.14h.21c.13,0,.19.08.14.21l-1.84,4.33c-.04.1-.1.14-.2.14h-.12c-.13,0-.18-.08-.14-.2Z"/></g></g></g></svg>